<svg width="116" height="40" viewBox="0 0 116 40" fill="none" xmlns="http://www.w3.org/2000/svg">
<g clip-path="url(#clip0_133_843)">
<g clip-path="url(#clip1_133_843)">
<path d="M26.1709 6.2229L28.5607 3.83306L34.1443 9.41667L31.7545 11.8065L26.1709 6.2229Z" fill="#6941C6"/>
<path d="M35.3669 5.68995C35.7723 5.28459 36 4.73481 36 4.16154C36 3.58827 35.7723 3.03848 35.3669 2.63311C34.9616 2.22774 34.4118 2.00001 33.8385 2C33.2653 1.99999 32.7155 2.22771 32.3101 2.63307L30.7817 4.16155L33.8385 7.21835L35.3669 5.68995Z" fill="#6941C6"/>
<path fill-rule="evenodd" clip-rule="evenodd" d="M21.9601 19.093L29.5575 11.4956L26.5012 8.43921L18.9038 16.0366L21.9601 19.093Z" fill="#6941C6"/>
<path d="M3.44824 31.4893L14.009 20.9284L17.0654 23.9847L6.50456 34.5456L3.44824 31.4893Z" fill="#6941C6"/>
<path d="M2.69206 32.6167L0.000488281 37.9999L5.38355 35.3083L2.69206 32.6167Z" fill="#6941C6"/>
</g>
<g clip-path="url(#clip2_133_843)">
<path d="M9.82959 6.2229L7.43977 3.83306L1.8562 9.41667L4.24602 11.8065L9.82959 6.2229Z" fill="#6941C6"/>
<path d="M0.633594 5.68995C0.22823 5.28459 0.000492096 4.73481 0.000484467 4.16154C0.00047636 3.58827 0.228198 3.03848 0.633551 2.63311C1.0389 2.22774 1.58868 2.00001 2.16195 2C2.73521 1.99999 3.285 2.22771 3.69036 2.63307L5.21875 4.16155L2.16198 7.21835L0.633594 5.68995Z" fill="#6941C6"/>
<path d="M22.5527 21.4929L9.49917 8.43927L6.44284 11.4956L19.4964 24.5493L22.5527 21.4929Z" fill="#6941C6"/>
<path d="M32.5522 31.4893L23.4976 22.4346L20.4413 25.4909L29.4959 34.5456L32.5522 31.4893Z" fill="#6941C6"/>
<path d="M33.3084 32.6167L36 37.9999L30.6169 35.3083L33.3084 32.6167Z" fill="#6941C6"/>
</g>
</g>
<path d="M48.7832 11.9341V16.6934H46V3.18555H51.2695C52.2839 3.18555 53.1745 3.37109 53.9414 3.74219C54.7145 4.11328 55.3083 4.64209 55.7227 5.32861C56.137 6.00895 56.3442 6.78516 56.3442 7.65723C56.3442 8.98079 55.8896 10.026 54.9805 10.793C54.0775 11.5537 52.825 11.9341 51.2231 11.9341H48.7832ZM48.7832 9.67969H51.2695C52.0055 9.67969 52.5653 9.50651 52.9487 9.16016C53.3384 8.8138 53.5332 8.31901 53.5332 7.67578C53.5332 7.014 53.3384 6.479 52.9487 6.0708C52.5591 5.6626 52.021 5.45231 51.3345 5.43994H48.7832V9.67969Z" fill="#6941C6"/>
<path d="M63.9543 13.9102H59.0744L58.1466 16.6934H55.1872L60.2155 3.18555H62.7946L67.8507 16.6934H64.8913L63.9543 13.9102ZM59.8258 11.6558H63.2028L61.505 6.59961L59.8258 11.6558Z" fill="#6941C6"/>
<path d="M71.6107 11.9341V16.6934H68.8275V3.18555H74.097C75.1113 3.18555 76.0019 3.37109 76.7689 3.74219C77.542 4.11328 78.1357 4.64209 78.5501 5.32861C78.9645 6.00895 79.1717 6.78516 79.1717 7.65723C79.1717 8.98079 78.7171 10.026 77.8079 10.793C76.9049 11.5537 75.6525 11.9341 74.0506 11.9341H71.6107ZM71.6107 9.67969H74.097C74.833 9.67969 75.3927 9.50651 75.7762 9.16016C76.1658 8.8138 76.3607 8.31901 76.3607 7.67578C76.3607 7.014 76.1658 6.479 75.7762 6.0708C75.3865 5.6626 74.8485 5.45231 74.1619 5.43994H71.6107V9.67969Z" fill="#6941C6"/>
<path d="M88.9341 10.8394H83.5903V14.4575H89.8618V16.6934H80.8071V3.18555H89.8432V5.43994H83.5903V8.65918H88.9341V10.8394Z" fill="#6941C6"/>
<path d="M96.2101 11.7485H93.9928V16.6934H91.2096V3.18555H96.2287C97.8244 3.18555 99.0551 3.54118 99.921 4.25244C100.787 4.9637 101.22 5.96875 101.22 7.26758C101.22 8.18913 101.019 8.95915 100.617 9.57764C100.221 10.1899 99.618 10.6785 98.8078 11.0435L101.73 16.5635V16.6934H98.7428L96.2101 11.7485ZM93.9928 9.49414H96.2379C96.9368 9.49414 97.478 9.31787 97.8615 8.96533C98.2449 8.60661 98.4367 8.11491 98.4367 7.49023C98.4367 6.85319 98.2542 6.35221 97.8893 5.9873C97.5306 5.6224 96.977 5.43994 96.2287 5.43994H93.9928V9.49414Z" fill="#6941C6"/>
<path d="M110.064 13.1494C110.064 12.6237 109.878 12.2217 109.507 11.9434C109.136 11.6589 108.468 11.362 107.503 11.0527C106.538 10.7373 105.775 10.4281 105.212 10.125C103.678 9.29622 102.911 8.17985 102.911 6.77588C102.911 6.04606 103.115 5.39665 103.523 4.82764C103.938 4.25244 104.528 3.80404 105.295 3.48242C106.068 3.16081 106.934 3 107.893 3C108.858 3 109.717 3.17627 110.472 3.52881C111.227 3.87516 111.811 4.36686 112.225 5.00391C112.646 5.64095 112.856 6.36458 112.856 7.1748H110.073C110.073 6.55632 109.878 6.07699 109.489 5.73682C109.099 5.39046 108.552 5.21729 107.846 5.21729C107.166 5.21729 106.637 5.36263 106.26 5.65332C105.883 5.93783 105.694 6.3151 105.694 6.78516C105.694 7.22428 105.914 7.59229 106.353 7.88916C106.798 8.18604 107.451 8.46436 108.31 8.72412C109.894 9.20036 111.047 9.79102 111.771 10.4961C112.494 11.2012 112.856 12.0794 112.856 13.1309C112.856 14.2998 112.414 15.2183 111.53 15.8862C110.645 16.548 109.455 16.8789 107.958 16.8789C106.919 16.8789 105.972 16.6903 105.119 16.313C104.265 15.9295 103.613 15.4069 103.161 14.7451C102.716 14.0833 102.493 13.3164 102.493 12.4443H105.286C105.286 13.9349 106.177 14.6802 107.958 14.6802C108.62 14.6802 109.136 14.5472 109.507 14.2812C109.878 14.0091 110.064 13.6318 110.064 13.1494Z" fill="#6941C6"/>
<path d="M46 36.6934V23.1855H50.7314C52.3704 23.1855 53.6136 23.501 54.4609 24.1318C55.3083 24.7565 55.7319 25.675 55.7319 26.8872C55.7319 27.549 55.5618 28.1335 55.2217 28.6406C54.8815 29.1416 54.4084 29.5096 53.8022 29.7446C54.495 29.9178 55.0392 30.2673 55.4351 30.793C55.8371 31.3187 56.0381 31.9619 56.0381 32.7227C56.0381 34.0215 55.6237 35.0049 54.7949 35.6729C53.9661 36.3408 52.7848 36.681 51.251 36.6934H46ZM48.7832 30.8115V34.4575H51.1675C51.8231 34.4575 52.3333 34.3029 52.6982 33.9937C53.0693 33.6782 53.2549 33.2453 53.2549 32.6948C53.2549 31.4578 52.6147 30.8301 51.3345 30.8115H48.7832ZM48.7832 28.8447H50.8428C52.2467 28.82 52.9487 28.2603 52.9487 27.1655C52.9487 26.5532 52.7694 26.1141 52.4106 25.8481C52.0581 25.576 51.4984 25.4399 50.7314 25.4399H48.7832V28.8447Z" fill="#6941C6"/>
<path d="M65.7607 33.9102H60.8809L59.9531 36.6934H56.9937L62.022 23.1855H64.6011L69.6572 36.6934H66.6978L65.7607 33.9102ZM61.6323 31.6558H65.0093L63.3115 26.5996L61.6323 31.6558Z" fill="#6941C6"/>
<path d="M80.8828 25.4399H75.8359V36.6934H73.0527V25.4399H68.9707V23.1855H80.8828V25.4399Z" fill="#6941C6"/>
<path d="M91.8857 25.4399H87.748V36.6934H84.9648V25.4399H80.8828V23.1855H91.8857V25.4399Z" fill="#6941C6"/>
<path d="M96.2646 34.4575H102.174V36.6934H93.4814V23.1855H96.2646V34.4575Z" fill="#6941C6"/>
<path d="M111.906 30.8394H106.562V34.4575H112.834V36.6934H103.779V23.1855H112.815V25.4399H106.562V28.6592H111.906V30.8394Z" fill="#6941C6"/>
<defs>
<clipPath id="clip0_133_843">
<rect width="36" height="36" fill="white" transform="translate(0 2)"/>
</clipPath>
<clipPath id="clip1_133_843">
<rect width="35.9997" height="36" fill="white" transform="translate(0.000488281 2)"/>
</clipPath>
<clipPath id="clip2_133_843">
<rect width="35.9997" height="36" fill="white" transform="matrix(-1 0 0 1 36 2)"/>
</clipPath>
</defs>
</svg>
