<svg width="113" height="40" viewBox="0 0 113 40" fill="none" xmlns="http://www.w3.org/2000/svg">
<g clip-path="url(#clip0_9_17622)">
<g clip-path="url(#clip1_9_17622)">
<path d="M25.2979 6.2229L27.608 3.83306L33.0055 9.41667L30.6953 11.8065L25.2979 6.2229Z" fill="white"/>
<path d="M34.1882 5.68995C34.58 5.28459 34.8002 4.73481 34.8002 4.16154C34.8002 3.58827 34.5801 3.03848 34.1882 2.63311C33.7964 2.22774 33.2649 2.00001 32.7108 2C32.1566 1.99999 31.6252 2.22771 31.2333 2.63307L29.7559 4.16155L32.7107 7.21835L34.1882 5.68995Z" fill="white"/>
<path fill-rule="evenodd" clip-rule="evenodd" d="M21.2279 19.093L28.572 11.4956L25.6176 8.43921L18.2734 16.0366L21.2279 19.093Z" fill="white"/>
<path d="M3.33301 31.4893L13.5418 20.9284L16.4962 23.9847L6.28745 34.5456L3.33301 31.4893Z" fill="white"/>
<path d="M2.60185 32.6167L0 37.9999L5.20363 35.3083L2.60185 32.6167Z" fill="white"/>
</g>
<g clip-path="url(#clip2_9_17622)">
<path d="M9.50195 6.2229L7.19179 3.83306L1.79435 9.41667L4.10451 11.8065L9.50195 6.2229Z" fill="white"/>
<path d="M0.611628 5.68995C0.219776 5.28459 -0.000370026 4.73481 -0.000377655 4.16154C-0.000385284 3.58827 0.219745 3.03848 0.611587 2.63311C1.00343 2.22774 1.53488 2.00001 2.08904 2C2.64319 1.99999 3.17465 2.22771 3.5665 2.63307L5.04395 4.16155L2.08907 7.21835L0.611628 5.68995Z" fill="white"/>
<path d="M21.8008 21.4929L9.18233 8.43927L6.22789 11.4956L18.8463 24.5493L21.8008 21.4929Z" fill="white"/>
<path d="M31.4668 31.4893L22.714 22.4346L19.7595 25.4909L28.5124 34.5456L31.4668 31.4893Z" fill="white"/>
<path d="M32.198 32.6167L34.7998 37.9999L29.5962 35.3083L32.198 32.6167Z" fill="white"/>
</g>
</g>
<path d="M47.1572 11.9341V16.6934H44.4668V3.18555H49.5607C50.5412 3.18555 51.4021 3.37109 52.1435 3.74219C52.8908 4.11328 53.4648 4.64209 53.8654 5.32861C54.2659 6.00895 54.4662 6.78516 54.4662 7.65723C54.4662 8.98079 54.0268 10.026 53.1479 10.793C52.275 11.5537 51.0643 11.9341 49.5158 11.9341H47.1572ZM47.1572 9.67969H49.5607C50.2721 9.67969 50.8132 9.50651 51.1839 9.16016C51.5606 8.8138 51.7489 8.31901 51.7489 7.67578C51.7489 7.014 51.5606 6.479 51.1839 6.0708C50.8072 5.6626 50.2871 5.45231 49.6235 5.43994H47.1572V9.67969Z" fill="white"/>
<path d="M61.8226 13.9102H57.1054L56.2085 16.6934H53.3477L58.2084 3.18555H60.7016L65.5892 16.6934H62.7284L61.8226 13.9102ZM57.8318 11.6558H61.0962L59.455 6.59961L57.8318 11.6558Z" fill="white"/>
<path d="M69.2238 11.9341V16.6934H66.5333V3.18555H71.6272C72.6077 3.18555 73.4687 3.37109 74.21 3.74219C74.9574 4.11328 75.5313 4.64209 75.9319 5.32861C76.3325 6.00895 76.5328 6.78516 76.5328 7.65723C76.5328 8.98079 76.0933 10.026 75.2145 10.793C74.3416 11.5537 73.1309 11.9341 71.5824 11.9341H69.2238ZM69.2238 9.67969H71.6272C72.3387 9.67969 72.8798 9.50651 73.2504 9.16016C73.6271 8.8138 73.8154 8.31901 73.8154 7.67578C73.8154 7.014 73.6271 6.479 73.2504 6.0708C72.8738 5.6626 72.3536 5.45231 71.69 5.43994H69.2238V9.67969Z" fill="white"/>
<path d="M85.9697 10.8394H80.8041V14.4575H86.8665V16.6934H78.1137V3.18555H86.8486V5.43994H80.8041V8.65918H85.9697V10.8394Z" fill="white"/>
<path d="M93.0032 11.7485H90.8598V16.6934H88.1694V3.18555H93.0212C94.5637 3.18555 95.7534 3.54118 96.5905 4.25244C97.4275 4.9637 97.846 5.96875 97.846 7.26758C97.846 8.18913 97.6517 8.95915 97.2631 9.57764C96.8804 10.1899 96.2975 10.6785 95.5143 11.0435L98.3392 16.5635V16.6934H95.4515L93.0032 11.7485ZM90.8598 9.49414H93.0301C93.7057 9.49414 94.2289 9.31787 94.5995 8.96533C94.9702 8.60661 95.1556 8.11491 95.1556 7.49023C95.1556 6.85319 94.9792 6.35221 94.6264 5.9873C94.2797 5.6224 93.7446 5.43994 93.0212 5.43994H90.8598V9.49414Z" fill="white"/>
<path d="M106.395 13.1494C106.395 12.6237 106.216 12.2217 105.857 11.9434C105.498 11.6589 104.853 11.362 103.92 11.0527C102.987 10.7373 102.249 10.4281 101.705 10.125C100.222 9.29622 99.4807 8.17985 99.4807 6.77588C99.4807 6.04606 99.678 5.39665 100.073 4.82764C100.473 4.25244 101.044 3.80404 101.785 3.48242C102.533 3.16081 103.37 3 104.297 3C105.229 3 106.06 3.17627 106.79 3.52881C107.519 3.87516 108.084 4.36686 108.485 5.00391C108.891 5.64095 109.094 6.36458 109.094 7.1748H106.404C106.404 6.55632 106.216 6.07699 105.839 5.73682C105.462 5.39046 104.933 5.21729 104.252 5.21729C103.594 5.21729 103.083 5.36263 102.718 5.65332C102.353 5.93783 102.171 6.3151 102.171 6.78516C102.171 7.22428 102.383 7.59229 102.808 7.88916C103.238 8.18604 103.869 8.46436 104.7 8.72412C106.231 9.20036 107.346 9.79102 108.045 10.4961C108.745 11.2012 109.094 12.0794 109.094 13.1309C109.094 14.2998 108.667 15.2183 107.812 15.8862C106.957 16.548 105.806 16.8789 104.359 16.8789C103.355 16.8789 102.44 16.6903 101.615 16.313C100.79 15.9295 100.159 15.4069 99.7228 14.7451C99.2924 14.0833 99.0771 13.3164 99.0771 12.4443H101.777C101.777 13.9349 102.637 14.6802 104.359 14.6802C104.999 14.6802 105.498 14.5472 105.857 14.2812C106.216 14.0091 106.395 13.6318 106.395 13.1494Z" fill="white"/>
<path d="M44.4668 36.6934V23.1855H49.0405C50.6249 23.1855 51.8266 23.501 52.6457 24.1318C53.4648 24.7565 53.8743 25.675 53.8743 26.8872C53.8743 27.549 53.7099 28.1335 53.3811 28.6406C53.0523 29.1416 52.5949 29.5096 52.009 29.7446C52.6786 29.9178 53.2047 30.2673 53.5874 30.793C53.976 31.3187 54.1703 31.9619 54.1703 32.7227C54.1703 34.0215 53.7697 35.0049 52.9686 35.6729C52.1674 36.3408 51.0255 36.681 49.5427 36.6934H44.4668ZM47.1572 30.8115V34.4575H49.462C50.0958 34.4575 50.589 34.3029 50.9418 33.9937C51.3005 33.6782 51.4798 33.2453 51.4798 32.6948C51.4798 31.4578 50.8611 30.8301 49.6235 30.8115H47.1572ZM47.1572 28.8447H49.1481C50.5053 28.82 51.1839 28.2603 51.1839 27.1655C51.1839 26.5532 51.0105 26.1141 50.6638 25.8481C50.323 25.576 49.7819 25.4399 49.0405 25.4399H47.1572V28.8447Z" fill="white"/>
<path d="M63.5688 33.9102H58.8516L57.9548 36.6934H55.094L59.9547 23.1855H62.4478L67.3354 36.6934H64.4746L63.5688 33.9102ZM59.578 31.6558H62.8424L61.2013 26.5996L59.578 31.6558Z" fill="white"/>
<path d="M78.1868 25.4399H73.3082V36.6934H70.6178V25.4399H66.6718V23.1855H78.1868V25.4399Z" fill="white"/>
<path d="M88.823 25.4399H84.8232V36.6934H82.1328V25.4399H78.1868V23.1855H88.823V25.4399Z" fill="white"/>
<path d="M93.056 34.4575H98.7686V36.6934H90.3655V23.1855H93.056V34.4575Z" fill="white"/>
<path d="M108.176 30.8394H103.011V34.4575H109.073V36.6934H100.32V23.1855H109.055V25.4399H103.011V28.6592H108.176V30.8394Z" fill="white"/>
<defs>
<clipPath id="clip0_9_17622">
<rect width="34.8" height="36" fill="white" transform="translate(0 2)"/>
</clipPath>
<clipPath id="clip1_9_17622">
<rect width="34.7997" height="36" fill="white" transform="translate(0 2)"/>
</clipPath>
<clipPath id="clip2_9_17622">
<rect width="34.7997" height="36" fill="white" transform="matrix(-1 0 0 1 34.7998 2)"/>
</clipPath>
</defs>
</svg>
