<svg width="24" height="20" viewBox="0 0 24 20" fill="none" xmlns="http://www.w3.org/2000/svg">
<path d="M24 2.54227C23.1169 2.93387 22.1679 3.19852 21.1719 3.31759C22.1887 2.70821 22.9693 1.74324 23.3369 0.593492C22.3704 1.16704 21.3129 1.57114 20.2103 1.78834C19.312 0.83143 18.0324 0.233398 16.6162 0.233398C13.8968 0.233398 11.6921 2.43802 11.6921 5.15715C11.6921 5.54312 11.7357 5.91887 11.8196 6.27934C7.72744 6.07393 4.09931 4.11371 1.67072 1.13471C1.24697 1.86193 1.00416 2.70784 1.00416 3.61009C1.00416 5.3184 1.8735 6.82543 3.19462 7.70846C2.4127 7.68397 1.64798 7.47278 0.964313 7.09252C0.964031 7.11315 0.964031 7.13377 0.964031 7.15449C0.964031 9.54015 2.66128 11.5303 4.91372 11.9826C4.18864 12.1798 3.42809 12.2087 2.69016 12.067C3.31669 14.0232 5.13516 15.4467 7.28972 15.4865C5.60456 16.8071 3.48141 17.5943 1.17459 17.5943C0.777094 17.5943 0.385219 17.571 0 17.5255C2.17903 18.9226 4.76719 19.7377 7.54781 19.7377C16.6047 19.7377 21.5573 12.2348 21.5573 5.72818C21.5573 5.51462 21.5526 5.30227 21.543 5.09115C22.507 4.39429 23.339 3.53116 24 2.54227Z" fill="#55ACEE"/>
</svg>
