<svg width="24" height="24" viewBox="0 0 24 24" fill="none" xmlns="http://www.w3.org/2000/svg">
<path d="M23.47 6.19453C23.3323 5.6858 23.0638 5.22201 22.6911 4.84934C22.3185 4.47667 21.8547 4.20812 21.346 4.07044C19.4835 3.5625 11.9878 3.5625 11.9878 3.5625C11.9878 3.5625 4.49177 3.57787 2.62933 4.08581C2.1206 4.2235 1.65681 4.49206 1.28415 4.86475C0.911497 5.23744 0.642976 5.70125 0.505331 6.21C-0.0580132 9.51919 -0.276545 14.5616 0.520799 17.7384C0.658459 18.2472 0.926986 18.711 1.29964 19.0836C1.6723 19.4563 2.13608 19.7248 2.6448 19.8625C4.50724 20.3705 12.0031 20.3705 12.0031 20.3705C12.0031 20.3705 19.4989 20.3705 21.3612 19.8625C21.87 19.7249 22.3338 19.4563 22.7064 19.0836C23.0791 18.711 23.3477 18.2472 23.4853 17.7384C24.0795 14.4246 24.2626 9.38531 23.47 6.19462V6.19453Z" fill="#FF0000"/>
<path d="M9.60156 15.5686L15.8199 11.9669L9.60166 8.36523L9.60156 15.5686Z" fill="white"/>
</svg>
